<svg
  xmlns="http://www.w3.org/2000/svg"
  width="24"
  height="24"
  viewBox="0 0 24 24"
  fill="none"
  stroke="currentColor"
  stroke-width="2"
  stroke-linecap="round"
  stroke-linejoin="round"
>
  <path d="M12 12h.01" />
  <path
    d="M14 15.464a4 4 0 0 1-4 0l-2.472 4.282a1 1 0 0 0 .465 1.416 10 10 0 0 0 8.014 0 1 1 0 0 0 .465-1.416z"
  />
  <path
    d="M16 12a4 4 0 0 0-2-3.464l2.472-4.282a1 1 0 0 1 1.46-.305 10 10 0 0 1 4.006 6.94A1 1 0 0 1 21 12z"
  />
  <path
    d="M8 12a4 4 0 0 1 2-3.464L7.528 4.254a1 1 0 0 0-1.46-.305 10 10 0 0 0-4.006 6.94A1 1 0 0 0 3 12z"
  />
</svg>
