<svg width="24" height="24" viewBox="0 0 24 24" fill="none" xmlns="http://www.w3.org/2000/svg">
  <path opacity="0.01" d="M1.5 1.5H22.5V22.5H1.5V1.5Z" fill="var(--business-icon-primary-color)" />
  <path
    d="M3.59998 4.30004C3.59998 3.91344 3.91338 3.60004 4.29998 3.60004H19.7C20.0866 3.60004 20.4 3.91344 20.4 4.30004V5.00004C20.4 5.38664 20.0866 5.70004 19.7 5.70004H4.29998C3.91338 5.70004 3.59998 5.38664 3.59998 5.00004V4.30004ZM21.1 6.40004C21.2856 6.40004 21.4637 6.47379 21.595 6.60506C21.7262 6.73634 21.8 6.91438 21.8 7.10004V18.3C21.8 18.4857 21.7262 18.6637 21.595 18.795C21.4637 18.9263 21.2856 19 21.1 19H14.8L12.2478 21.5522C12.1821 21.6181 12.093 21.6551 12 21.6551C11.907 21.6551 11.8178 21.6181 11.7522 21.5522L9.19998 19H2.89998C2.71433 19 2.53628 18.9263 2.40501 18.795C2.27373 18.6637 2.19998 18.4857 2.19998 18.3V7.10004C2.19998 6.91438 2.27373 6.73634 2.40501 6.60506C2.53628 6.47379 2.71433 6.40004 2.89998 6.40004H21.1ZM6.39998 11.3C5.62685 11.3001 5.00015 11.9269 5.00015 12.7C5.00015 13.4732 5.62685 14.0999 6.39998 14.1C6.90019 14.1001 7.36243 13.8333 7.61256 13.4001C7.86268 12.9669 7.86268 12.4332 7.61256 12C7.36243 11.5668 6.90019 11.3 6.39998 11.3ZM12 11.3C11.2268 11.3001 10.6002 11.9269 10.6002 12.7C10.6002 13.4732 11.2268 14.0999 12 14.1C12.5002 14.1001 12.9624 13.8333 13.2126 13.4001C13.4627 12.9669 13.4627 12.4332 13.2126 12C12.9624 11.5668 12.5002 11.3 12 11.3ZM17.6 11.3C16.8268 11.3001 16.2002 11.9269 16.2002 12.7C16.2002 13.4732 16.8268 14.0999 17.6 14.1C18.1002 14.1001 18.5624 13.8333 18.8126 13.4001C19.0627 12.9669 19.0627 12.4332 18.8126 12C18.5624 11.5668 18.1002 11.3 17.6 11.3Z"
    fill="var(--business-icon-primary-color)"
  />
</svg>
