<svg width="24" height="24" viewBox="0 0 24 24" fill="none" xmlns="http://www.w3.org/2000/svg">
  <g clip-path="url(#clip0_3445_33718)">
    <path
      d="M8.6704 4.3554C6.51032 5.37107 4.84219 7.20323 4.03297 9.44882C3.22376 11.6944 3.33975 14.1695 4.35542 16.3296C5.37109 18.4897 7.20326 20.1578 9.44885 20.967C11.6944 21.7762 14.1695 21.6602 16.3296 20.6446C18.4897 19.6289 20.1578 17.7967 20.967 15.5511C21.7762 13.3055 21.6602 10.8304 20.6446 8.67037C19.6289 6.51029 17.7967 4.84216 15.5511 4.03295C13.3056 3.22373 10.8305 3.33972 8.6704 4.3554ZM9.96815 9.91605L10.3529 10.7343L14.8405 8.62416C14.9406 8.57228 15.0501 8.54114 15.1625 8.53259C15.2749 8.52405 15.3879 8.53828 15.4946 8.57443C15.6014 8.61059 15.6998 8.66792 15.7839 8.743C15.868 8.81808 15.936 8.90936 15.984 9.01137C16.0319 9.11338 16.0588 9.22402 16.063 9.33666C16.0672 9.44931 16.0486 9.56164 16.0083 9.66693C15.9681 9.77222 15.907 9.8683 15.8287 9.94941C15.7504 10.0305 15.6566 10.095 15.5528 10.139L8.73439 13.345C8.58469 13.415 8.41762 13.4392 8.2542 13.4145C8.09078 13.3898 7.93833 13.3173 7.81603 13.2061C7.69373 13.095 7.60706 12.9501 7.56692 12.7898C7.52679 12.6294 7.53498 12.4608 7.59047 12.3051L8.42159 9.98828C8.4776 9.83247 8.57854 9.69675 8.71165 9.59828C8.84476 9.4998 9.00408 9.44299 9.16946 9.43502C9.33485 9.42705 9.49888 9.46827 9.64085 9.55348C9.78282 9.6387 9.89634 9.76407 9.96709 9.91378L9.96815 9.91605ZM9.8063 14.6921L16.2656 11.6549C16.4209 11.5822 16.5947 11.5589 16.7637 11.5882C16.9326 11.6174 17.0885 11.6978 17.2103 11.8185C17.3321 11.9391 17.4139 12.0943 17.4448 12.2629C17.4756 12.4316 17.4539 12.6056 17.3826 12.7616L16.3005 15.1201C16.2339 15.2652 16.1272 15.3882 15.993 15.4746C15.8588 15.561 15.7027 15.6073 15.5431 15.608C15.3834 15.6087 15.2269 15.5638 15.092 15.4785C14.9571 15.3932 14.8493 15.2712 14.7814 15.1267L14.4255 14.3699L10.5186 16.2069C10.4185 16.2588 10.309 16.29 10.1966 16.2985C10.0842 16.307 9.97122 16.2928 9.86445 16.2567C9.75768 16.2205 9.65931 16.1632 9.57523 16.0881C9.49115 16.013 9.42308 15.9217 9.37512 15.8197C9.32715 15.7177 9.30027 15.6071 9.29609 15.4944C9.2919 15.3818 9.31049 15.2695 9.35076 15.1642C9.39102 15.0589 9.45212 14.9628 9.53039 14.8817C9.60867 14.8006 9.70251 14.7361 9.8063 14.6921Z"
      fill="var(--business-icon-primary-color)"
    />
  </g>
  <defs>
    <clipPath id="clip0_3445_33718">
      <rect width="24" height="24" fill="var(--business-icon-secondary-color)" />
    </clipPath>
  </defs>
</svg>
